<?xml version="1.0" encoding="UTF-8" standalone="no"?>
<svg
   width="186.1842"
   height="40"
   role="img"
   aria-label="Buy Me A Coffee: Donate"
   version="1.1"
   id="svg30"
   xmlns="http://www.w3.org/2000/svg"
   xmlns:svg="http://www.w3.org/2000/svg"
   xmlns:rdf="http://www.w3.org/1999/02/22-rdf-syntax-ns#"
   xmlns:cc="http://creativecommons.org/ns#"
   xmlns:dc="http://purl.org/dc/elements/1.1/">
  <defs
     id="defs34" />
  <title
     id="title2">Buy Me A Coffee: Donate</title>
  <linearGradient
     id="s"
     x2="0"
     y2="54.772255"
     gradientTransform="matrix(2.7386128,0,0,0.36514837,-5.5656844,18.995008)"
     x1="0"
     y1="0"
     gradientUnits="userSpaceOnUse">
    <stop
       offset="0"
       stop-color="#bbb"
       stop-opacity=".1"
       id="stop4" />
    <stop
       offset="1"
       stop-opacity=".1"
       id="stop6" />
  </linearGradient>
  <clipPath
     id="r">
    <rect
       width="150"
       height="20"
       rx="3"
       fill="#ffffff"
       id="rect9"
       x="0"
       y="0" />
  </clipPath>
  <metadata
     id="metadata851">
    <rdf:RDF>
      <cc:Work
         rdf:about="">
        <dc:title>Buy Me A Coffee: Donate</dc:title>
      </cc:Work>
    </rdf:RDF>
  </metadata>
  <g
     style="fill:none"
     id="g925"
     transform="matrix(0.13071895,0,0,0.13071895,-3.7021421,-32.530701)">
    <g
       id="g1">
      <path
         d="m 28.321387,297.81987 c 0,-27.0398 21.920201,-48.96 48.960002,-48.96 H 1403.6706 c 27.04,0 48.96,21.9202 48.96,48.96 v 208.08001 c 0,27.04 -21.92,48.96 -48.96,48.96 H 77.281389 c -27.039801,0 -48.960002,-21.92 -48.960002,-48.96 z"
         fill="#ffdd00"
         id="path859"
         style="fill:#ffdd00;stroke-width:2" />
      <path
         d="m 232.69898,349.49547 -0.134,-0.079 -0.312,-0.095 c 0.126,0.1056 0.282,0.1668 0.446,0.174 z"
         fill="#0d0c22"
         id="path861"
         style="stroke-width:2" />
      <path
         d="m 234.66898,363.48667 -0.15,0.042 z"
         fill="#0d0c22"
         id="path863"
         style="stroke-width:2" />
      <path
         d="m 232.75298,349.47227 c -0.018,-0.002 -0.034,-0.006 -0.05,-0.012 -0.002,0.01 -0.002,0.022 0,0.033 0.018,-0.002 0.034,-0.01 0.05,-0.0212 z"
         fill="#0d0c22"
         id="path865"
         style="stroke-width:2" />
      <path
         d="m 232.70098,349.50087 h 0.026 v -0.016 z"
         fill="#0d0c22"
         id="path867"
         style="stroke-width:2" />
      <path
         d="m 234.54898,363.46107 0.226,-0.129 0.084,-0.0476 0.076,-0.0816 c -0.142,0.062 -0.274,0.1494 -0.386,0.2582 z"
         fill="#0d0c22"
         id="path869"
         style="stroke-width:2" />
      <path
         d="m 233.08498,349.80247 -0.222,-0.2108 -0.15,-0.0816 c 0.082,0.1424 0.214,0.2474 0.372,0.2924 z"
         fill="#0d0c22"
         id="path871"
         style="stroke-width:2" />
      <path
         d="m 177.41518,485.56588 c -0.177,0.076 -0.3318,0.196 -0.4506,0.348 l 0.1396,-0.09 c 0.0948,-0.086 0.2292,-0.19 0.311,-0.258 z"
         fill="#0d0c22"
         id="path873"
         style="stroke-width:2" />
      <path
         d="m 209.74618,479.20588 c 0,-0.2 -0.0976,-0.164 -0.0738,0.548 0,-0.058 0.0238,-0.116 0.0342,-0.172 0.014,-0.126 0.0238,-0.25 0.0396,-0.376 z"
         fill="#0d0c22"
         id="path875"
         style="stroke-width:2" />
      <path
         d="m 206.40718,485.56588 c -0.1768,0.076 -0.3316,0.196 -0.4504,0.348 l 0.1396,-0.09 c 0.0948,-0.086 0.2292,-0.19 0.3108,-0.258 z"
         fill="#0d0c22"
         id="path877"
         style="stroke-width:2" />
      <path
         d="m 154.63218,487.07988 c -0.1342,-0.116 -0.2986,-0.194 -0.4742,-0.222 0.1422,0.07 0.2844,0.138 0.3794,0.19 z"
         fill="#0d0c22"
         id="path879"
         style="stroke-width:2" />
      <path
         d="m 149.51578,482.17388 c -0.0208,-0.208 -0.0846,-0.408 -0.187,-0.59 0.0726,0.188 0.1332,0.382 0.1818,0.58 z"
         fill="#0d0c22"
         id="path881"
         style="stroke-width:2" />
      <path
         d="m 183.92858,394.40727 c -7.0346,3.0114 -15.0176,6.4258 -25.3638,6.4258 -4.3282,-0.008 -8.6352,-0.6024 -12.8044,-1.7652 l 7.1558,73.46801 c 0.2532,3.07 1.6522,5.934 3.9188,8.02 2.2666,2.088 5.2352,3.246 8.3164,3.244 0,0 10.146,0.528 13.5316,0.528 3.6436,0 14.5696,-0.528 14.5696,-0.528 3.0806,0 6.0486,-1.158 8.3148,-3.244 2.266,-2.088 3.6646,-4.95 3.9178,-8.02 l 7.6642,-81.18481 c -3.425,-1.1698 -6.8816,-1.947 -10.7784,-1.947 -6.7394,-0.002 -12.1694,2.3184 -18.4424,5.0032 z"
         fill="#ffffff"
         id="path883"
         style="fill:#ffffff;stroke-width:2" />
      <path
         d="m 123.62378,363.06407 0.1212,0.1132 0.079,0.0474 c -0.0608,-0.0604 -0.128,-0.1144 -0.2002,-0.1606 z"
         fill="#0d0c22"
         id="path885"
         style="stroke-width:2" />
      <path
         d="m 246.25298,356.28367 -1.076,-5.4352 c -0.968,-4.8768 -3.162,-9.4848 -8.168,-11.2474 -1.604,-0.5638 -3.426,-0.8062 -4.656,-1.9732 -1.23,-1.1672 -1.594,-2.9798 -1.878,-4.6608 -0.526,-3.0852 -1.022,-6.173 -1.562,-9.2528 -0.466,-2.6478 -0.836,-5.6224 -2.05,-8.0514 -1.58,-3.2618 -4.86,-5.1692 -8.122,-6.4312 -1.672,-0.624 -3.378,-1.1518 -5.1092,-1.5808 -8.149,-2.15 -16.7168,-2.9404 -25.1004,-3.3908 -10.0624,-0.5552 -20.1518,-0.388 -30.1904,0.5006 -7.4718,0.6796 -15.3414,1.5018 -22.4418,4.0862 -2.5952,0.946 -5.2692,2.0814 -7.2426,4.0864 -2.4212,2.4634 -3.2116,6.2732 -1.4438,9.345 1.2568,2.1816 3.3856,3.7228 5.6434,4.7424 2.941,1.3138 6.0124,2.3134 9.1632,2.9824 8.7734,1.9392 17.8604,2.7006 26.8234,3.0246 9.9342,0.401 19.8846,0.076 29.7714,-0.9722 2.445,-0.2686 4.8856,-0.591 7.3218,-0.9668 2.869,-0.44 4.7106,-4.1918 3.865,-6.8054 -1.0118,-3.1246 -3.7306,-4.3366 -6.8054,-3.865 -0.453,0.0712 -0.9036,0.137 -1.3568,0.203 l -0.3266,0.0474 c -1.0416,0.1316 -2.0832,0.2546 -3.1248,0.3688 -2.1516,0.2318 -4.3084,0.4216 -6.4706,0.569 -4.8424,0.3372 -9.6982,0.4928 -14.5512,0.5006 -4.7686,0 -9.54,-0.1344 -14.2982,-0.4478 -2.171,-0.1424 -4.3366,-0.3232 -6.497,-0.5428 -0.9828,-0.1028 -1.9628,-0.2108 -2.943,-0.332 l -0.9326,-0.1186 -0.2028,-0.0288 -0.967,-0.1398 c -1.976,-0.2976 -3.952,-0.6402 -5.9068,-1.0538 -0.1972,-0.0438 -0.3738,-0.1534 -0.5002,-0.311 -0.1264,-0.1576 -0.1954,-0.3538 -0.1954,-0.5558 0,-0.202 0.069,-0.398 0.1954,-0.5556 0.1264,-0.1576 0.303,-0.2674 0.5002,-0.3112 h 0.0368 c 1.6942,-0.361 3.4014,-0.6692 5.1138,-0.938 0.571,-0.0894 1.1436,-0.1774 1.7178,-0.2634 h 0.0158 c 1.0724,-0.0712 2.15,-0.2634 3.217,-0.39 9.2836,-0.9656 18.6224,-1.2948 27.951,-0.9852 4.5288,0.1316 9.0552,0.3978 13.563,0.8562 0.9696,0.1002 1.934,0.2056 2.8982,0.324 0.3688,0.0448 0.7404,0.0976 1.1118,0.1424 l 0.7482,0.108 c 2.1816,0.3248 4.3516,0.7192 6.5102,1.183 3.1986,0.6954 7.3052,0.922 8.7292,4.4262 0.452,1.1118 0.658,2.3474 0.908,3.5146 l 0.32,1.4884 c 0.008,0.0268 0.014,0.0542 0.018,0.0818 0.754,3.5128 1.508,7.0256 2.262,10.5386 0.056,0.2594 0.058,0.5276 0.004,0.7876 -0.052,0.26 -0.158,0.5064 -0.31,0.7236 -0.152,0.2174 -0.348,0.401 -0.574,0.5394 -0.226,0.1384 -0.48,0.2286 -0.742,0.2652 h -0.022 l -0.46,0.0632 -0.456,0.0606 c -1.444,0.188 -2.89,0.3636 -4.3368,0.527 -2.8506,0.3248 -5.7056,0.606 -8.5652,0.843 -5.682,0.4726 -11.3754,0.7826 -17.0804,0.93 -2.9068,0.0774 -5.8128,0.1134 -8.718,0.108 -11.5634,-0.008 -23.1168,-0.681 -34.6034,-2.0128 -1.2436,-0.1476 -2.487,-0.3056 -3.7306,-0.4664 0.9642,0.124 -0.7008,-0.0948 -1.038,-0.1422 -0.7904,-0.1106 -1.5808,-0.2256 -2.3712,-0.3452 -2.6532,-0.3978 -5.2904,-0.8878 -7.9382,-1.3172 -3.2012,-0.527 -6.2626,-0.2634 -9.158,1.3172 -2.3768,1.3006 -4.3004,3.2952 -5.5144,5.7172 -1.2488,2.582 -1.6202,5.3932 -2.1788,8.1674 -0.5586,2.7744 -1.428,5.7594 -1.0986,8.6074 0.7086,6.1466 5.0058,11.142 11.1866,12.259 5.8146,1.0538 11.661,1.9076 17.523,2.6346 23.0276,2.8204 46.2916,3.1578 69.3912,1.0066 1.8812,-0.1758 3.7598,-0.3672 5.6348,-0.5744 0.586,-0.0644 1.18,0.004 1.736,0.1976 0.556,0.1944 1.062,0.5108 1.48,0.926 0.418,0.4154 0.74,0.919 0.938,1.474 0.198,0.555 0.27,1.1474 0.21,1.7338 l -0.586,5.6854 c -1.178,11.4888 -2.356,22.97681 -3.534,34.46381 -1.23,12.0632 -2.4678,24.1256 -3.713,36.186 -0.3514,3.398 -0.7026,6.794 -1.054,10.19 -0.3372,3.342 -0.3846,6.792 -1.0196,10.096 -1.001,5.194 -4.5184,8.386 -9.6506,9.552 -4.702,1.07 -9.5052,1.632 -14.3272,1.676 -5.3456,0.028 -10.6888,-0.208 -16.0344,-0.18 -5.7066,0.032 -12.6964,-0.494 -17.1016,-4.742 -3.8702,-3.73 -4.405,-9.572 -4.932,-14.622 -0.7026,-6.686 -1.399,-13.372 -2.0892,-20.058 l -3.873,-37.1716 -2.5056,-24.05181 c -0.042,-0.3978 -0.0842,-0.7904 -0.1238,-1.1908 -0.3002,-2.869 -2.3316,-5.6776 -5.5326,-5.5328 -2.7402,0.1212 -5.8542,2.4502 -5.5328,5.5328 l 1.8574,17.83121 3.8412,36.8852 c 1.0944,10.4778 2.186,20.9558 3.275,31.4358 0.2108,2.008 0.4084,4.022 0.6296,6.028 1.204,10.972 9.5822,16.884 19.9574,18.548 6.0598,0.976 12.267,1.176 18.4162,1.276 7.8828,0.126 15.8448,0.43 23.5986,-0.998 11.4896,-2.108 20.11,-9.78 21.34,-21.682 0.352,-3.434 0.704,-6.872 1.054,-10.308 1.168,-11.368 2.334,-22.7366 3.5,-34.106 l 3.808,-37.14861 1.748,-17.025 c 0.086,-0.8442 0.444,-1.638 1.016,-2.2638 0.574,-0.6258 1.334,-1.0506 2.166,-1.2112 3.286,-0.6404 6.426,-1.7336 8.764,-4.234 3.72,-3.981 4.46,-9.1712 3.144,-14.4036 z m -123.5876,3.6728 c 0.05,-0.0238 -0.0422,0.4056 -0.0816,0.606 -0.008,-0.303 0.008,-0.5718 0.0816,-0.606 z m 0.3188,2.466 c 0.0264,-0.018 0.1054,0.087 0.187,0.2134 -0.1238,-0.116 -0.2028,-0.2028 -0.1896,-0.2134 z m 0.3136,0.4136 c 0.1132,0.1924 0.1738,0.3136 0,0 z m 0.6296,0.5112 h 0.0158 c 0,0.018 0.029,0.0368 0.0396,0.0552 -0.0176,-0.0202 -0.037,-0.0388 -0.058,-0.0552 z m 110.2656,-0.7642 c -1.18,1.1224 -2.96,1.6442 -4.716,1.905 -19.7076,2.9244 -39.702,4.405 -59.6252,3.7516 -14.2586,-0.4874 -28.3672,-2.0708 -42.4836,-4.0652 -1.3832,-0.195 -2.8822,-0.4478 -3.8334,-1.4674 -1.7916,-1.9234 -0.9116,-5.7964 -0.4452,-8.12 0.4268,-2.1288 1.2436,-4.9664 3.7754,-5.2694 3.952,-0.4636 8.5416,1.204 12.4514,1.7968 4.7072,0.7184 9.432,1.2936 14.1744,1.7258 20.2392,1.8442 40.8184,1.557 60.9682,-1.1408 3.672,-0.4936 7.332,-1.067 10.978,-1.7204 3.25,-0.5824 6.85,-1.6756 8.814,1.6888 1.346,2.292 1.524,5.3588 1.316,7.9486 -0.064,1.1284 -0.556,2.1898 -1.378,2.9666 z"
         fill="#0d0c22"
         id="path887"
         style="fill:#000000;stroke-width:2" />
      <path
         fill-rule="evenodd"
         clip-rule="evenodd"
         d="m 377.41902,428.8932 c -1.74946,3.34104 -4.15612,6.25094 -7.21998,8.71996 -3.06386,2.47086 -6.6358,4.4826 -10.72196,6.03156 -4.0831,1.55262 -8.1936,2.5944 -12.32538,3.12532 -4.13484,0.53306 -8.14798,0.4868 -12.03332,-0.1458 -3.89142,-0.6286 -7.20172,-1.91194 -9.92176,-3.85188 l 3.0669,-31.8303 c 2.8174,-0.96782 6.36502,-1.96182 10.6459,-2.97956 4.27782,-1.01622 8.67736,-1.7446 13.20164,-2.1797 4.52428,-0.4369 8.79906,-0.38548 12.83654,0.1458 4.03442,0.53276 7.21998,1.8161 9.55362,3.85188 1.2657,1.16164 2.33668,2.42126 3.20988,3.77824 0.87626,1.3573 1.40872,2.76234 1.60648,4.21546 0.48376,4.06942 -0.146,7.77586 -1.89856,11.11902 z m -44.49128,-67.80395 c 2.04156,-1.2593 4.49994,-2.37502 7.36604,-3.34498 2.86912,-0.966 5.81128,-1.64662 8.82644,-2.03364 3.01214,-0.3855 5.95428,-0.43722 8.82646,-0.1458 2.86608,0.29118 5.39748,1.08984 7.58508,2.39722 2.1876,1.30922 3.81536,3.19926 4.88634,5.66828 1.06794,2.47268 1.36002,5.598 0.87322,9.37624 -0.3864,3.00392 -1.58212,5.5484 -3.57196,7.63042 -1.99288,2.08538 -4.42692,3.82784 -7.293,5.2332 -2.86914,1.40688 -5.90864,2.52046 -9.1155,3.34104 -3.21294,0.82604 -6.30112,1.43274 -9.26458,1.81822 -2.96648,0.38914 -5.54354,0.63254 -7.73112,0.72656 -2.1876,0.0976 -3.62368,0.1454 -4.30522,0.1454 z m 60.24564,47.23659 c -1.55476,-3.3894 -3.64498,-6.36929 -6.27072,-8.93965 -2.62572,-2.5667 -5.7413,-4.43086 -9.3376,-5.59434 1.55476,-1.25962 3.0882,-3.2455 4.5973,-5.95976 1.50608,-2.7106 2.79308,-5.66828 3.86406,-8.8657 1.06792,-3.19924 1.80118,-6.41888 2.18758,-9.66588 0.38642,-3.2455 0.24036,-6.03156 -0.43508,-8.35882 -1.65818,-5.81188 -4.25654,-10.36658 -7.8072,-13.66168 -3.55066,-3.29326 -7.68244,-5.5706 -12.3984,-6.83174 -4.719,-1.25568 -9.91874,-1.52494 -15.6083,-0.79838 -5.68958,0.72626 -11.50086,2.15536 -17.4308,4.28696 0,-0.48316 0.0486,-0.99186 0.146,-1.52492 0.0944,-0.53092 0.143,-1.08984 0.143,-1.6725 0,-1.45282 -0.72718,-2.7106 -2.1876,-3.77824 -1.45738,-1.0658 -3.13382,-1.6944 -5.02934,-1.89004 -1.89856,-0.1916 -3.74538,0.21754 -5.54658,1.23558 -1.79814,1.01774 -3.0395,2.88586 -3.718,5.59436 -0.7789,8.72208 -1.55778,17.78312 -2.33364,27.18004 -0.7789,9.40028 -1.60646,18.8967 -2.47968,28.49078 -0.87626,9.59197 -1.75252,19.11243 -2.62572,28.55895 -0.87626,9.44836 -1.75252,18.5316 -2.62572,27.25156 0.29208,2.6166 1.01924,4.65238 2.18758,6.1055 1.1653,1.45464 2.52838,2.32694 4.08312,2.6166 1.55474,0.29116 3.18556,0.0218 4.88634,-0.8005 1.70078,-0.82058 3.18556,-2.25332 4.45126,-4.28696 3.88838,2.13162 8.26662,3.51262 13.12862,4.14334 4.862,0.6286 9.79398,0.6286 14.80812,0 5.005,-0.63072 9.94002,-1.8164 14.80202,-3.56252 4.862,-1.74278 9.28892,-3.92398 13.27466,-6.53876 3.9888,-2.6166 7.3417,-5.5983 10.06782,-8.93932 2.72004,-3.34498 4.52124,-6.95376 5.39444,-10.82784 0.87626,-3.97358 1.11966,-7.94534 0.73022,-11.91922 -0.38944,-3.97174 -1.36306,-7.65232 -2.9178,-11.0469 z"
         fill="#0d0c23"
         id="path889"
         style="fill:#000000;stroke-width:3.04256" />
      <path
         fill-rule="evenodd"
         clip-rule="evenodd"
         d="m 535.48887,485.06576 c -0.53244,3.19772 -1.29004,6.56584 -2.26062,10.10432 -0.97362,3.53242 -2.11458,6.75752 -3.42592,9.6662 -1.31438,2.90564 -2.77176,5.25144 -4.37518,7.04656 -1.60648,1.79206 -3.33464,2.54358 -5.18148,2.25452 -1.45738,-0.1978 -2.38232,-1.1166 -2.76872,-2.76262 -0.39248,-1.64908 -0.39248,-3.68454 0,-6.10338 0.3864,-2.42492 1.13792,-5.1632 2.25758,-8.2149 1.11966,-3.05168 2.48272,-6.08206 4.08614,-9.08202 1.60648,-3.00604 3.42896,-5.88734 5.47052,-8.64998 2.04156,-2.75898 4.18046,-5.0622 6.41674,-6.90234 0.48682,0.58082 0.70588,2.03394 0.6572,4.3609 -0.0518,2.32542 -0.34076,5.08806 -0.87626,8.28274 z m 49.45368,-63.07916 c -1.31438,-1.45312 -2.9178,-2.27552 -4.81636,-2.47086 -1.8955,-0.1938 -3.8184,0.872 -5.75956,3.19742 -1.2657,2.32512 -2.87216,4.5544 -4.81636,6.68602 -1.9442,2.13344 -3.9614,4.06972 -6.05164,5.81402 -2.09328,1.74246 -4.08616,3.24702 -5.98166,4.5048 -1.89552,1.26114 -3.38028,2.18122 -4.44822,2.76204 -0.38944,-3.09946 -0.61154,-6.44262 -0.65718,-10.02918 -0.0518,-3.58474 0.0244,-7.21724 0.21906,-10.89964 0.28904,-5.2329 0.89754,-10.51234 1.82248,-15.8432 0.92494,-5.32873 2.26062,-10.56193 4.01314,-15.69929 0,-2.7106 -0.6359,-4.91584 -1.89856,-6.61238 -1.2657,-1.6944 -2.7961,-2.76202 -4.59426,-3.19742 -1.80118,-0.43508 -3.64498,-0.1934 -5.54354,0.72656 -1.8955,0.9219 -3.52326,2.5944 -4.88634,5.01384 -1.1653,3.19924 -2.50402,6.78368 -4.01008,10.75572 -1.5091,3.97358 -3.2099,8.01927 -5.1054,12.13677 -1.89856,4.12114 -4.01314,8.11692 -6.34678,11.99132 -2.33364,3.87772 -4.88634,7.31856 -7.6581,10.32034 -2.77178,3.00392 -5.78694,5.3549 -9.04248,7.0496 -3.26162,1.69622 -6.78186,2.44682 -10.57592,2.25332 -1.7525,-0.485 -3.01822,-1.79238 -3.79406,-3.92582 -0.7789,-2.12978 -1.24136,-4.79628 -1.38436,-7.9937 -0.146,-3.19742 0,-6.71004 0.43508,-10.5382 0.43812,-3.826 1.0223,-7.63012 1.75252,-11.40836 0.72716,-3.78006 1.5304,-7.36481 2.4036,-10.75573 0.87626,-3.39094 1.7008,-6.25094 2.4797,-8.57606 1.16834,-2.80858 1.16834,-5.16138 0,-7.0496 -1.1653,-1.89004 -2.76874,-3.14752 -4.81028,-3.78006 -2.04156,-0.6286 -4.18352,-0.60304 -6.4198,0.074 -2.23628,0.67848 -3.84274,2.17938 -4.81332,4.5045 -1.65514,3.9757 -3.16426,8.4306 -4.52428,13.37232 -1.36002,4.94202 -2.45534,10.05505 -3.27988,15.33449 -0.82756,5.28278 -1.29308,10.51598 -1.3874,15.69928 -0.006,0.33742 0.01,0.6581 0.01,0.9937 -2.12066,5.63328 -4.14092,9.89104 -6.06078,12.74008 -2.47968,3.68394 -5.27882,5.2828 -8.38832,4.79598 -1.3661,-0.58082 -2.26062,-1.93628 -2.69874,-4.06972 -0.44118,-2.12978 -0.58418,-4.74608 -0.44118,-7.84948 0.149,-3.09794 0.5142,-6.61056 1.09532,-10.53636 0.58722,-3.924 1.31134,-7.9934 2.1876,-12.20886 0.87626,-4.21698 1.8012,-8.45253 2.77176,-12.71759 0.97362,-4.26322 1.84684,-8.28488 2.62878,-12.06494 -0.0974,-3.39094 -1.09532,-5.98166 -2.99388,-7.77586 -1.89246,-1.79054 -4.54558,-2.49308 -7.94716,-2.10758 -2.33364,0.96966 -4.0618,2.2311 -5.17842,3.78006 -1.11966,1.54866 -2.02026,3.53668 -2.69874,5.95764 -0.3925,1.26144 -0.97362,3.78006 -1.75252,7.56014 -0.7789,3.77642 -1.7738,8.1154 -2.99082,13.00723 -1.21398,4.89578 -2.65008,10.00544 -4.30218,15.33416 -1.6521,5.32904 -3.50198,10.15302 -5.5405,14.46218 -2.04458,4.3113 -4.28086,7.77586 -6.71186,10.39246 -2.431,2.61476 -5.05674,3.6824 -7.87718,3.19742 -1.5578,-0.29118 -2.5527,-1.89004 -2.99084,-4.79598 -0.43812,-2.90808 -0.5081,-6.49068 -0.21906,-10.75574 0.29208,-4.26322 0.87626,-8.93962 1.74948,-14.02526 0.87624,-5.08746 1.7738,-9.90746 2.69874,-14.4637 0.92494,-4.55289 1.77684,-8.57635 2.55574,-12.06313 0.77586,-3.4889 1.31134,-5.81402 1.60342,-6.97566 0,-2.8101 -0.63588,-5.0616 -1.8955,-6.75994 -1.2657,-1.69288 -2.7961,-2.76052 -4.5973,-3.19742 -1.8012,-0.4351 -3.64802,-0.1936 -5.5405,0.72656 -1.89854,0.92188 -3.52632,2.59438 -4.88938,5.01352 -0.4868,2.6166 -1.11966,5.64636 -1.89552,9.08536 -0.77888,3.4387 -1.5304,6.97568 -2.2606,10.61 -0.73022,3.63435 -1.41176,7.19505 -2.04156,10.68365 -0.63286,3.48888 -1.09532,6.54056 -1.3874,9.15716 -0.1948,2.03396 -0.4138,4.53068 -0.65416,7.4847 -0.24644,2.95766 -0.36814,6.08114 -0.36814,9.3744 0,3.29722 0.2434,6.56644 0.73324,9.81164 0.48378,3.2473 1.36004,6.22718 2.6227,8.9378 1.26266,2.71426 3.0395,4.94172 5.3275,6.68602 2.28192,1.74428 5.17538,2.71244 8.67738,2.90806 3.59628,0.1916 6.73316,-0.072 9.41062,-0.80048 2.67136,-0.72658 5.10236,-1.866 7.293,-3.4168 2.1876,-1.54714 4.18046,-3.3891 5.98166,-5.52254 1.7951,-2.12978 3.57196,-4.4549 5.32142,-6.97566 1.65516,3.68422 3.79408,6.54058 6.4198,8.57604 2.62572,2.03396 5.39748,3.24732 8.3153,3.63282 2.91476,0.38518 5.8843,-0.0222 8.89946,-1.23558 3.01214,-1.20972 5.73522,-3.26924 8.16622,-6.1773 1.60344,-1.78294 3.11254,-3.80958 4.53036,-6.04982 0.60244,1.04908 1.24138,2.06134 1.96246,2.9963 2.38232,3.10342 5.61656,5.2332 9.7027,6.39668 4.3752,1.16346 8.64998,1.3591 12.8335,0.58264 4.18046,-0.77432 8.16926,-2.1812 11.96028,-4.21516 3.79406,-2.03576 7.31734,-4.48076 10.57896,-7.34076 3.25554,-2.85818 6.10032,-5.83622 8.53132,-8.93932 -0.0974,2.22928 -0.146,4.33868 -0.146,6.32272 0,1.9877 -0.0486,4.14152 -0.143,6.46848 -4.86504,3.39304 -9.4593,7.46246 -13.78582,12.20884 -4.32954,4.7464 -8.12362,9.80982 -11.37914,15.18784 -3.25858,5.37618 -5.81128,10.82844 -7.65508,16.35068 -1.84986,5.52528 -2.75046,10.68546 -2.70178,15.48356 0.0486,4.79506 1.18964,8.98466 3.42896,12.5688 2.23324,3.58716 5.88126,6.15204 10.93798,7.70374 5.2545,1.64906 9.87004,1.6947 13.86188,0.146 3.98574,-1.5517 7.46034,-4.11962 10.42684,-7.70374 2.96648,-3.58414 5.39748,-7.91978 7.29604,-13.00692 1.89552,-5.08716 3.40158,-10.39336 4.52124,-15.9156 1.11662,-5.52224 1.82248,-10.9532 2.11458,-16.27858 0.29208,-5.33086 0.29208,-10.0809 0,-14.24616 8.36398,-3.48708 15.21886,-7.89604 20.56766,-13.2269 5.34882,-5.32508 9.77268,-10.9474 13.27466,-16.8591 1.06794,-1.45312 1.43306,-3.19742 1.09532,-5.23136 -0.3438,-2.03546 -1.16834,-3.78006 -2.47968,-5.23288 z"
         fill="#0d0c23"
         id="path891"
         style="fill:#000000;stroke-width:3.04256" />
      <path
         fill-rule="evenodd"
         clip-rule="evenodd"
         d="m 768.95932,412.68794 c 0.29208,-2.22744 0.7302,-4.57842 1.31134,-7.04928 0.58416,-2.47086 1.31438,-4.86993 2.19064,-7.19505 0.8732,-2.32512 1.8955,-4.33504 3.06384,-6.03156 1.1653,-1.6947 2.40666,-2.90594 3.718,-3.63434 1.31438,-0.72472 2.64702,-0.65292 4.01314,0.21756 1.45738,0.87412 2.35494,2.71426 2.69874,5.52254 0.33772,2.81374 0,5.81584 -1.0223,9.01327 -1.0223,3.19924 -2.84478,6.20102 -5.47052,9.01144 -2.62572,2.81192 -6.17638,4.65024 -10.64894,5.52254 -0.1948,-1.35334 -0.146,-3.14752 0.146,-5.37712 z m 50.5429,5.95794 c -1.60342,-0.48134 -3.13382,-0.53092 -4.59426,-0.144 -1.45738,0.38732 -2.38232,1.40506 -2.76872,3.05382 -0.78194,3.09944 -2.0233,6.27282 -3.72408,9.51832 -1.70078,3.24732 -3.79102,6.32274 -6.26766,9.2308 -2.47968,2.90594 -5.27884,5.47478 -8.38832,7.70224 -3.11558,2.22928 -6.37112,3.82784 -9.77574,4.79598 -3.40462,1.06764 -6.22506,1.1875 -8.4583,0.36328 -2.23932,-0.82058 -4.01312,-2.22746 -5.32446,-4.21332 -1.3144,-1.9859 -2.26366,-4.38494 -2.8448,-7.19506 -0.58416,-2.8104 -0.92494,-5.71634 -1.0223,-8.72208 5.54354,0.38914 10.47856,-0.60274 14.80812,-2.97958 4.32346,-2.37136 7.99584,-5.52284 11.011,-9.44682 3.01214,-3.92368 5.30014,-8.33264 6.85488,-13.2266 1.55474,-4.89183 2.431,-9.76173 2.62572,-14.60761 0.0974,-4.5547 -0.58112,-8.40476 -2.04154,-11.5541 -1.4574,-3.14784 -3.42896,-5.5983 -5.90866,-7.34078 -2.47664,-1.7443 -5.32446,-2.76234 -8.53132,-3.05168 -3.20684,-0.29148 -6.46846,0.1454 -9.77572,1.30738 -3.9888,1.35698 -7.36602,3.5604 -10.1378,6.61422 -2.77176,3.05168 -5.08106,6.59016 -6.9279,10.61 -1.84682,4.02164 -3.30724,8.35668 -4.37518,13.00722 -1.07098,4.65207 -1.84988,9.23081 -2.33364,13.73745 -0.43814,4.04354 -0.6724,7.91034 -0.75456,11.64264 -0.20994,0.47372 -0.41074,0.9292 -0.63284,1.43638 -1.50912,3.44266 -3.26162,6.80954 -5.25146,10.1028 -1.99288,3.2954 -4.20786,6.05742 -6.6358,8.28488 -2.43102,2.2296 -4.95938,3.00392 -7.5851,2.32544 -1.55778,-0.3855 -2.40666,-2.18152 -2.5527,-5.37712 -0.146,-3.19924 0.0212,-7.171 0.5081,-11.9192 0.48682,-4.7464 1.04664,-9.88526 1.6795,-15.40812 0.6298,-5.52254 0.94622,-10.80166 0.94622,-15.84137 0,-4.3609 -0.82756,-8.55018 -2.47968,-12.57366 -1.65514,-4.018 -3.91576,-7.36298 -6.78184,-10.02734 -2.86914,-2.6665 -6.20074,-4.43484 -9.99176,-5.305 -3.79406,-0.87412 -7.87717,-0.29148 -12.25237,1.74246 -4.37824,2.03578 -7.85588,4.89366 -10.42988,8.57606 -2.58008,3.68422 -4.93806,7.55832 -7.07698,11.62804 -0.7789,-3.10158 -1.91986,-5.98168 -3.42896,-8.64816 -1.50606,-2.66438 -3.3529,-4.9898 -5.5405,-6.9775 -2.19064,-1.98404 -4.64902,-3.53484 -7.36602,-4.65054 -2.72308,-1.11176 -5.59526,-1.67036 -8.61042,-1.67036 -2.91478,0 -5.61352,0.5586 -8.0932,1.67036 -2.47968,1.1157 -4.7403,2.54296 -6.7849,4.28726 -2.04156,1.74612 -3.88838,3.70644 -5.54354,5.88766 -1.6521,2.17968 -3.11252,4.33716 -4.37518,6.46694 -0.1978,-2.51894 -0.4138,-4.72234 -0.65416,-6.61452 -0.24644,-1.8879 -0.68458,-3.48676 -1.31438,-4.79414 -0.63286,-1.30922 -1.5304,-2.3011 -2.69874,-2.97988 -1.16834,-0.67666 -2.82046,-1.01774 -4.95938,-1.01774 -1.07096,0 -2.14194,0.21754 -3.20988,0.65262 -1.07098,0.43722 -2.02026,1.0439 -2.8448,1.81824 -0.82756,0.77828 -1.45738,1.72026 -1.8955,2.83414 -0.43814,1.11388 -0.5568,2.39906 -0.36512,3.85188 0.0974,1.06762 0.36512,2.34946 0.80324,3.85218 0.43508,1.5027 0.84888,3.46668 1.23832,5.88582 0.38944,2.42308 0.70588,5.35488 0.94928,8.79389 0.2434,3.44084 0.31338,7.65598 0.21906,12.64578 -0.1004,4.99162 -0.46246,10.82754 -1.09532,17.51356 -0.63284,6.6863 -1.6308,14.43812 -2.99082,23.25424 -0.1948,2.03548 0.58416,3.68424 2.33668,4.94354 1.74946,1.2575 3.74234,1.98406 5.97862,2.17938 2.23628,0.1938 4.35388,-0.1954 6.34676,-1.16164 1.99288,-0.97178 3.13688,-2.66618 3.42592,-5.08746 0.29208,-4.5544 0.85192,-9.39844 1.67948,-14.5358 0.82454,-5.1334 1.84684,-10.22086 3.06386,-15.26054 1.21398,-5.03756 2.59834,-9.83354 4.15614,-14.39008 1.55474,-4.5544 3.2829,-8.57422 5.17842,-12.06313 1.89856,-3.48858 3.86708,-6.27314 5.90864,-8.35668 2.04156,-2.08354 4.18048,-3.12562 6.4198,-3.12562 2.72004,0 4.83462,1.23376 6.34372,3.70462 1.50606,2.47268 2.574,5.6479 3.2099,9.52017 0.6298,3.87804 0.92188,8.11906 0.87624,12.7197 -0.0518,4.60248 -0.24644,9.03516 -0.58416,13.2984 -0.34076,4.26506 -0.73022,8.06734 -1.16834,11.41048 -0.43814,3.34316 -0.75456,5.64608 -0.94624,6.90356 0,2.2296 0.84888,3.9961 2.54966,5.30532 1.7008,1.30708 3.5963,2.08354 5.68958,2.32512 2.09328,0.2434 4.05876,-0.1458 5.90864,-1.16348 1.84684,-1.01804 2.91782,-2.73464 3.2099,-5.15956 0.97058,-6.97568 2.3093,-13.97506 4.01008,-21.00064 1.7008,-7.02526 3.64802,-13.32242 5.83562,-18.89486 2.1876,-5.57244 4.6186,-10.12685 7.293,-13.66351 2.67442,-3.53484 5.51921,-5.30532 8.53439,-5.30532 1.55474,0 2.74742,1.06764 3.57196,3.19742 0.82756,2.13162 1.24136,5.03788 1.24136,8.72028 0,2.71427 -0.21908,5.50033 -0.65416,8.35851 -0.44116,2.85818 -0.94928,5.81402 -1.53344,8.8657 -0.58418,3.0535 -1.09532,6.1773 -1.53346,9.37472 -0.43508,3.19924 -0.65414,6.54028 -0.65414,10.02918 0,2.42278 0.2434,5.23288 0.73022,8.4303 0.48376,3.1956 1.40566,6.2272 2.76872,9.08326 1.36306,2.86 3.23424,5.28126 5.6196,7.26714 2.38232,1.98588 5.41878,2.97988 9.11244,2.97988 5.54658,0 10.45422,-1.18752 14.7351,-3.5607 4.27784,-2.3732 7.9502,-5.47296 11.01404,-9.3008 0.1582,-0.2011 0.30426,-0.415 0.45944,-0.61398 0.23426,0.56592 0.44116,1.1653 0.70586,1.70352 2.09024,4.26324 4.93502,7.5565 8.53438,9.88374 3.5963,2.32512 7.82848,3.60848 12.69352,3.85188 4.85896,0.23976 10.1591,-0.65628 15.9004,-2.69022 4.27478,-1.5508 7.99584,-3.4889 11.15704,-5.81402 3.15818,-2.32512 6.00296,-5.15926 8.53132,-8.50242 2.53142,-3.34318 4.83768,-7.19504 6.93094,-11.55412 2.09328,-4.36272 4.20482,-9.35068 6.34374,-14.97302 0.38944,-1.54682 0.0244,-2.92814 -1.09228,-4.14122 -1.11966,-1.20972 -2.47968,-2.05798 -4.08616,-2.54478 z"
         fill="#0d0c23"
         id="path893"
         style="fill:#000000;stroke-width:3.04256" />
      <path
         fill-rule="evenodd"
         clip-rule="evenodd"
         d="m 898.78208,402.43361 c -0.48682,2.86001 -1.14096,6.01119 -1.96854,9.44837 -0.82758,3.44082 -1.87118,7.00152 -3.13688,10.68392 -1.26266,3.6821 -2.82044,7.00122 -4.66728,9.95524 -1.84682,2.95768 -3.96444,5.305 -6.34372,7.0496 -2.38536,1.7443 -5.12974,2.47086 -8.24228,2.17938 -1.55778,-0.1916 -2.75046,-1.25748 -3.575,-3.19742 -0.82758,-1.93598 -1.26266,-4.40866 -1.31438,-7.41256 -0.0486,-3.0021 0.21906,-6.29718 0.80322,-9.88344 0.58418,-3.58292 1.48174,-7.09738 2.7018,-10.5382 1.21398,-3.43718 2.6957,-6.61238 4.44518,-9.52047 1.7525,-2.90594 3.76972,-5.15926 6.05468,-6.75782 2.28496,-1.59886 4.79202,-2.34732 7.51206,-2.2533 2.72308,0.0976 5.6409,1.45282 8.75344,4.0694 -0.1978,1.26146 -0.5355,3.32096 -1.0223,6.1773 z m 51.8573,11.11903 c -1.50912,-0.77464 -3.06386,-0.94228 -4.66728,-0.5072 -1.60344,0.4351 -2.74744,1.91408 -3.42592,4.43302 -0.38944,2.71426 -1.2657,5.90984 -2.62572,9.59194 -1.36308,3.68242 -3.04256,7.17314 -5.0324,10.46458 -1.9959,3.29508 -4.28086,6.03338 -6.85792,8.21276 -2.57704,2.18152 -5.32446,3.17552 -8.23922,2.97806 -2.43406,-0.1916 -4.13788,-1.42728 -5.10542,-3.70432 -0.97666,-2.27736 -1.48476,-5.1337 -1.53344,-8.57636 -0.0518,-3.43716 0.29208,-7.31308 1.01926,-11.6259 0.7302,-4.3113 1.60646,-8.59856 2.62572,-12.86544 1.0223,-4.2614 2.06894,-8.35668 3.13992,-12.28067 1.06794,-3.92368 1.94114,-7.2428 2.62572,-9.95524 0.77586,-2.4231 0.53244,-4.48078 -0.73022,-6.17912 -1.2657,-1.69288 -2.84478,-2.90626 -4.7403,-3.63252 -1.89854,-0.72656 -3.82144,-0.92036 -5.76564,-0.58112 -1.94418,0.33956 -3.20684,1.38132 -3.79102,3.1238 -5.73826,-4.94172 -11.25744,-7.6064 -16.55454,-7.9934 -5.30318,-0.38732 -10.18952,0.77614 -14.66206,3.48858 -4.4756,2.71244 -8.43702,6.63642 -11.88726,11.77378 -3.4533,5.13704 -6.24942,10.7317 -8.39138,16.78731 -2.13892,6.05528 -3.4746,12.23442 -4.01008,18.53158 -0.5355,6.2987 -0.1218,12.04092 1.24136,17.22422 1.36306,5.18328 3.76668,9.4243 7.21998,12.71574 3.45026,3.29508 8.14492,4.94384 14.0779,4.94384 2.62572,0 5.1541,-0.53304 7.5851,-1.59886 2.42796,-1.06762 4.66728,-2.32694 6.70882,-3.78006 2.04156,-1.45312 3.8397,-2.97988 5.40054,-4.57844 1.5517,-1.59886 2.76872,-2.92998 3.64498,-3.99762 0.67848,3.4886 1.79814,6.44626 3.35594,8.86754 1.5517,2.42096 3.32856,4.41048 5.32142,5.95762 1.99288,1.54896 4.08616,2.6884 6.27376,3.41678 2.18758,0.72656 4.3052,1.08986 6.34372,1.08986 4.57296,0 8.84774,-1.5508 12.83958,-4.65238 3.98574,-3.09762 7.56074,-6.90356 10.72196,-11.40836 3.15818,-4.50664 5.7626,-9.25302 7.80112,-14.24464 2.04458,-4.98948 3.40462,-9.42248 4.08614,-13.30022 0.68154,-1.45312 0.5568,-2.97806 -0.3651,-4.5766 -0.92494,-1.59888 -2.13892,-2.78456 -3.64802,-3.56254 z"
         fill="#0d0c23"
         id="path895"
         style="fill:#000000;stroke-width:3.04256" />
      <path
         fill-rule="evenodd"
         clip-rule="evenodd"
         d="m 1213.2149,493.79484 c -0.8245,3.29206 -2.1146,6.08208 -3.8671,8.3579 -1.7495,2.27584 -3.9371,3.46244 -6.5628,3.56284 -1.6521,0.0944 -2.9178,-0.7789 -3.794,-2.6166 -0.8733,-1.84378 -1.4818,-4.21698 -1.8225,-7.12262 -0.3408,-2.90868 -0.4868,-6.15508 -0.4382,-9.73922 0.049,-3.58412 0.1948,-7.12262 0.4382,-10.6106 0.2403,-3.48676 0.5355,-6.73592 0.8762,-9.7377 0.3377,-3.00574 0.6055,-5.3272 0.8002,-6.97566 3.3073,0.38702 6.0577,1.81428 8.2423,4.28696 2.1876,2.47086 3.8671,5.40114 5.0324,8.7939 1.1683,3.39092 1.8468,7.0505 2.0446,10.97236 0.1916,3.9249 -0.1248,7.53336 -0.9493,10.82844 z m -52.8066,0 c -0.8245,3.29206 -2.1146,6.08208 -3.864,8.3579 -1.7495,2.27584 -3.9402,3.46244 -6.5659,3.56284 -1.6521,0.0944 -2.9147,-0.7789 -3.791,-2.6166 -0.8763,-1.84378 -1.4848,-4.21698 -1.8225,-7.12262 -0.3438,-2.90868 -0.4898,-6.15508 -0.4381,-9.73922 0.046,-3.58412 0.1916,-7.12262 0.4381,-10.6106 0.2404,-3.48676 0.5325,-6.73592 0.8732,-9.7377 0.3408,-3.00574 0.6055,-5.3272 0.8033,-6.97566 3.3042,0.38702 6.0546,1.81428 8.2392,4.28696 2.1906,2.47086 3.8671,5.40114 5.0354,8.7939 1.1684,3.39092 1.8469,7.0505 2.0416,10.97236 0.1916,3.9249 -0.1248,7.53336 -0.9493,10.82844 z m -54.1879,-82.55514 c -0.1004,2.32328 -0.3195,4.3831 -0.6602,6.17546 -0.3408,1.79602 -0.8002,2.93182 -1.3844,3.4168 -1.071,-0.58266 -2.3854,-2.08172 -3.9401,-4.50664 -1.5547,-2.42096 -2.7687,-5.16108 -3.648,-8.21306 -0.8732,-3.0517 -1.144,-6.05349 -0.8002,-9.01115 0.3377,-2.95402 1.8712,-5.25358 4.5942,-6.90386 1.068,-0.58082 1.9929,-0.36328 2.7718,0.65476 0.7789,1.01772 1.4087,2.49458 1.8986,4.4327 0.4837,1.93992 0.8215,4.16738 1.0192,6.68633 0.1948,2.52044 0.2434,4.9417 0.149,7.26866 z m -12.9126,28.99614 c -1.5091,1.59674 -3.1886,2.97776 -5.0324,4.14154 -1.8499,1.16346 -3.7454,2.03546 -5.6896,2.61658 -1.9472,0.58266 -3.6967,0.72626 -5.2514,0.4351 -4.3752,-0.87048 -7.7311,-2.76234 -10.0648,-5.66828 -2.3336,-2.90626 -3.8184,-6.32122 -4.4482,-10.2449 -0.6328,-3.9258 -0.5629,-8.11722 0.2191,-12.57396 0.7758,-4.45674 2.0872,-8.59826 3.937,-12.4264 1.8469,-3.82815 4.0862,-7.12323 6.7089,-9.88345 2.6257,-2.76234 5.4948,-4.48076 8.6074,-5.16138 -1.1684,4.94172 -1.5548,10.05502 -1.1684,15.33449 0.3895,5.28096 1.6552,10.2467 3.7941,14.89694 1.36,2.81406 2.9908,5.37894 4.8863,7.70406 1.8986,2.32724 4.2079,4.31312 6.931,5.95976 -0.7789,1.64846 -1.9229,3.27104 -3.429,4.8699 z m 161.4075,-27.54302 c 0.2921,-2.22746 0.7272,-4.58056 1.3144,-7.05142 0.5812,-2.46904 1.3114,-4.86781 2.1846,-7.19323 0.8762,-2.32694 1.8985,-4.33686 3.0669,-6.03156 1.1683,-1.6944 2.4036,-2.90776 3.718,-3.63432 1.3144,-0.72656 2.65,-0.65446 4.0101,0.21754 1.4604,0.87412 2.3579,2.71426 2.6987,5.52254 0.3408,2.81224 0,5.81402 -1.0192,9.01327 -1.0223,3.19742 -2.8448,6.20134 -5.4706,9.00962 -2.6226,2.81374 -6.1763,4.65236 -10.6489,5.52436 -0.1948,-1.35516 -0.146,-3.14752 0.146,-5.3768 z m 58.7883,0 c 0.2921,-2.22746 0.7272,-4.58056 1.3113,-7.05142 0.5842,-2.46904 1.3144,-4.86781 2.1907,-7.19323 0.8732,-2.32694 1.8924,-4.33686 3.0608,-6.03156 1.1683,-1.6944 2.4097,-2.90776 3.721,-3.63432 1.3144,-0.72656 2.6501,-0.65446 4.0101,0.21754 1.4604,0.87412 2.358,2.71426 2.6987,5.52254 0.3408,2.81224 0,5.81402 -1.0192,9.01327 -1.0223,3.19742 -2.8448,6.20134 -5.4705,9.00962 -2.6257,2.81374 -6.1764,4.65236 -10.649,5.52436 -0.1948,-1.35516 -0.146,-3.14752 0.146,-5.3768 z m 54.6291,8.50242 c -1.1197,-1.20972 -2.4797,-2.05798 -4.0832,-2.5448 -1.6064,-0.48316 -3.1368,-0.53092 -4.5973,-0.1436 -1.4573,0.38702 -2.3853,1.40506 -2.7717,3.05168 -0.7789,3.10158 -2.0172,6.27496 -3.718,9.51834 -1.7039,3.24914 -3.7941,6.32486 -6.2738,9.2308 -2.4797,2.90594 -5.2758,5.4766 -8.3853,7.70406 -3.1155,2.22926 -6.3711,3.82812 -9.7726,4.79414 -3.4077,1.06946 -6.2281,1.18934 -8.4644,0.3651 -2.2363,-0.8224 -4.0101,-2.22744 -5.3245,-4.21332 -1.3113,-1.9877 -2.2576,-4.38492 -2.8448,-7.19686 -0.5811,-2.80828 -0.9249,-5.71452 -1.0192,-8.71996 5.5435,0.38884 10.4785,-0.60304 14.805,-2.97988 4.3265,-2.37318 7.9989,-5.52466 11.0171,-9.44834 3.0121,-3.92216 5.2971,-8.33112 6.8519,-13.22478 1.5547,-4.89395 2.431,-9.76203 2.6287,-14.60791 0.094,-4.5544 -0.5872,-8.40658 -2.0446,-11.55594 -1.4574,-3.14752 -3.4259,-5.59646 -5.9056,-7.33894 -2.4827,-1.74612 -5.3244,-2.76234 -8.5374,-3.0535 -3.2068,-0.29148 -6.4654,0.1476 -9.7727,1.30738 -3.9888,1.3588 -7.366,3.56252 -10.1347,6.6142 -2.7718,3.05352 -5.0841,6.592 -6.931,10.61 -1.8498,4.02348 -3.3072,8.35668 -4.3782,13.00906 -1.071,4.65055 -1.8468,9.23081 -2.3306,13.73561 -0.4746,4.37186 -0.7302,8.55598 -0.788,12.5609 -0.3682,0.79836 -0.7607,1.60068 -1.1836,2.40818 -1.7038,3.24914 -3.794,6.32486 -6.2737,9.2308 -2.4767,2.90594 -5.2758,5.4766 -8.3853,7.70406 -3.1125,2.22926 -6.3711,3.82812 -9.7727,4.79414 -3.4076,1.06946 -6.225,1.18934 -8.4613,0.3651 -2.2393,-0.8224 -4.0132,-2.22744 -5.3245,-4.21332 -1.3113,-1.9877 -2.2606,-4.38492 -2.8448,-7.19686 -0.5842,-2.80828 -0.9249,-5.71452 -1.0223,-8.71996 5.5436,0.38884 10.4786,-0.60304 14.8081,-2.97988 4.3235,-2.37318 7.9959,-5.52466 11.011,-9.44834 3.0152,-3.92216 5.3002,-8.33112 6.8549,-13.22478 1.5548,-4.89395 2.4341,-9.76203 2.6257,-14.60791 0.097,-4.5544 -0.5811,-8.40658 -2.0385,-11.55594 -1.4604,-3.14752 -3.432,-5.59646 -5.9117,-7.33894 -2.4796,-1.74612 -5.3214,-2.76234 -8.5313,-3.0535 -3.2099,-0.29148 -6.4685,0.1476 -9.7727,1.30738 -3.9918,1.3588 -7.369,3.56252 -10.1378,6.6142 -2.7717,3.05352 -5.0841,6.592 -6.9309,10.61 -1.8468,4.02348 -3.3042,8.35668 -4.3752,13.00906 -1.071,4.65055 -1.8499,9.23081 -2.3336,13.73561 -0.2769,2.54084 -0.4595,5.0044 -0.5964,7.42354 -0.9401,0.79684 -1.8559,1.59886 -2.8326,2.38628 -3.3529,2.71426 -6.8822,5.15926 -10.5759,7.34076 -3.6967,2.18122 -7.5395,3.97358 -11.5222,5.37864 -3.9918,1.40504 -8.0749,2.2533 -12.2554,2.54296 l 9.0455,-96.51045 c 0.5842,-2.03578 0.2921,-3.82602 -0.8762,-5.3768 -1.1653,-1.5508 -2.6744,-2.6166 -4.5213,-3.19742 -1.8468,-0.58266 -3.8184,-0.53306 -5.9086,0.144 -2.0933,0.68032 -3.8154,2.2311 -5.1784,4.65024 -0.6816,3.68422 -1.3874,8.72178 -2.1146,15.11662 -0.7302,6.39484 -1.4604,13.37234 -2.1876,20.93066 -0.7302,7.5583 -1.4604,15.3582 -2.1876,23.39968 -0.7302,8.04513 -1.3631,15.55385 -1.8985,22.52951 -0.024,0.30974 -0.043,0.58996 -0.067,0.89604 -0.852,0.71926 -1.6765,1.44368 -2.5588,2.15564 -3.3529,2.71426 -6.8823,5.15926 -10.5759,7.34078 -3.6968,2.1812 -7.5365,3.97356 -11.5222,5.37862 -3.9888,1.40506 -8.075,2.25332 -12.2554,2.54296 l 9.0455,-96.51045 c 0.5842,-2.03576 0.2921,-3.826 -0.8732,-5.3768 -1.1684,-1.55078 -2.6775,-2.6166 -4.5243,-3.19742 -1.8468,-0.58264 -3.8184,-0.53306 -5.9087,0.144 -2.0902,0.68032 -3.8153,2.23112 -5.1784,4.65024 -0.6815,3.68424 -1.3843,8.7218 -2.1115,15.11664 -0.7333,6.39484 -1.4604,13.37232 -2.1907,20.93064 -0.7302,7.55832 -1.4573,15.3582 -2.1875,23.39968 -0.7272,8.04513 -1.3631,15.55385 -1.8956,22.52951 -0.012,0.14 -0.021,0.26714 -0.033,0.4074 -1.5273,0.70618 -3.1916,1.32596 -5.0019,1.84592 -1.8469,0.53458 -3.9371,0.84978 -6.2707,0.94594 0.3894,-1.74644 0.7028,-3.68424 0.9462,-5.81584 0.2434,-2.1298 0.4412,-4.35908 0.5872,-6.68632 0.146,-2.3233 0.1916,-4.65024 0.146,-6.97568 -0.052,-2.32694 -0.1734,-4.45673 -0.3651,-6.39667 -0.4898,-4.16344 -1.3874,-8.11328 -2.6987,-11.84528 -1.3144,-3.72864 -3.0882,-6.85214 -5.3245,-9.37472 -2.2393,-2.51892 -5.0324,-4.21514 -8.3914,-5.08562 -3.3529,-0.8723 -7.2686,-0.58266 -11.7381,0.87048 -6.6176,-0.87048 -12.5719,-0.2638 -17.872,1.81792 -5.3001,2.08568 -9.8974,5.1115 -13.7858,9.08324 -3.8884,3.9757 -7.074,8.64816 -9.5536,14.0271 -2.4797,5.37681 -4.1349,10.90147 -4.9594,16.56793 -0.3499,2.4024 -0.5203,4.79416 -0.572,7.18012 -1.5061,3.07206 -3.1551,5.75682 -4.9715,8.01014 -2.5771,3.19742 -5.2515,5.81402 -8.0233,7.84796 -2.7717,2.03548 -5.5192,3.58626 -8.2392,4.65206 -2.7261,1.06764 -5.1571,1.7942 -7.296,2.1797 -2.5284,0.48498 -4.9594,0.53458 -7.293,0.1458 -2.3337,-0.3855 -4.4756,-1.5012 -6.4168,-3.34316 -1.5578,-1.35546 -2.7505,-3.53668 -3.575,-6.54058 -0.82758,-3.00362 -1.31134,-6.41676 -1.45738,-10.24672 -0.146,-3.82814 0,-7.82576 0.43508,-11.99132 0.43814,-4.16526 1.1896,-8.1151 2.2606,-11.84529 1.071,-3.73046 2.428,-7.07332 4.0862,-10.0313 1.649,-2.95188 3.5963,-5.06158 5.8356,-6.3209 1.2596,0.1954 2.0415,0.9441 2.3336,2.2515 0.2921,1.3092 0.3621,2.86 0.2161,4.65236 -0.143,1.7939 -0.3621,3.63434 -0.6542,5.52254 -0.2921,1.89004 -0.4381,3.46668 -0.4381,4.72419 0.4868,2.6166 1.433,4.65236 2.8448,6.10518 1.4087,1.45314 2.9908,2.30322 4.7403,2.54298 1.7494,0.2434 3.4746,-0.168 5.1814,-1.23558 1.6978,-1.06398 3.0821,-2.76022 4.1562,-5.08746 0.094,0.0976 0.2403,0.1458 0.435,0.1458 l 2.0446,-18.45797 c 0.5812,-2.52076 0.1916,-4.74822 -1.1683,-6.68602 -1.3631,-1.9381 -3.1612,-3.0535 -5.3975,-3.34316 -2.8204,-4.06972 -6.6388,-6.22506 -11.4522,-6.46846 -4.8133,-0.24158 -9.7483,1.33294 -14.80504,4.72416 -3.11252,2.23112 -5.85996,5.305 -8.24228,9.22898 -2.38536,3.92582 -4.3265,8.28488 -5.83258,13.08086 -1.51214,4.79598 -2.58008,9.86153 -3.20988,15.19057 -0.63286,5.32874 -0.75456,10.51416 -0.36816,15.5499 0.38946,5.0412 1.29004,9.78942 2.7018,14.24432 1.4087,4.45886 3.37722,8.18902 5.90864,11.19112 2.13892,2.6166 4.56686,4.53218 7.28996,5.74374 2.72304,1.21154 5.56784,1.9603 8.53434,2.25148 2.9665,0.28966 5.9087,0.168 8.8265,-0.36328 2.9178,-0.53092 5.6895,-1.28152 8.3153,-2.25332 3.4015,-1.25748 6.9066,-2.85818 10.5029,-4.79598 3.5963,-1.93628 7.0496,-4.26322 10.3568,-6.97748 1.7404,-1.42726 3.4138,-2.98352 5.0324,-4.65236 0.7363,1.82188 1.5608,3.58474 2.5527,5.23502 2.6257,4.35906 6.1734,7.89754 10.649,10.60998 4.4695,2.71244 9.9674,4.018 16.4815,3.92398 7.0039,-0.0976 13.4694,-1.86416 19.4023,-5.305 5.933,-3.43716 10.795,-8.50424 14.5891,-15.18872 5.6804,0 11.2696,-0.93286 16.7645,-2.78608 -0.046,0.5863 -0.094,1.20394 -0.137,1.77016 -0.3864,5.13554 -0.5842,8.6223 -0.5842,10.46426 -0.094,3.19742 -0.3134,7.14544 -0.6541,11.84376 -0.3408,4.70012 -0.5599,9.64216 -0.6572,14.82422 -0.094,5.18452 0.097,10.41772 0.5841,15.6996 0.4868,5.27882 1.5061,10.07694 3.0639,14.39128 1.5517,4.30826 3.7636,7.96844 6.6358,10.97448 2.8661,2.99996 6.6358,4.79508 11.3061,5.3762 4.9594,0.67544 9.2372,-0.1948 12.8366,-2.6166 3.5963,-2.42492 6.5141,-5.7413 8.7534,-9.95524 2.2363,-4.21698 3.8123,-9.08506 4.7403,-14.6073 0.9219,-5.52528 1.1897,-11.07186 0.8033,-16.64582 -0.3925,-5.57122 -1.4148,-10.82662 -3.0669,-15.76652 -1.6521,-4.94354 -3.9401,-9.01326 -6.8549,-12.2125 1.7525,-0.48134 3.8397,-1.4014 6.2737,-2.7602 2.428,-1.35546 4.932,-2.88222 7.5121,-4.57874 0.6328,-0.41652 1.2566,-0.85556 1.8894,-1.28336 -0.2373,3.43354 -0.359,5.88218 -0.359,7.31674 -0.094,3.19742 -0.3134,7.14544 -0.6572,11.84376 -0.3377,4.70012 -0.5568,9.64216 -0.6541,14.82422 -0.097,5.18452 0.097,10.41772 0.5841,15.6996 0.4838,5.27882 1.5061,10.07694 3.0608,14.39128 1.5548,4.30826 3.7698,7.96844 6.6359,10.97448 2.8691,2.99996 6.6388,4.79508 11.3091,5.3762 4.9564,0.67544 9.2342,-0.1948 12.8335,-2.6166 3.5994,-2.42492 6.5172,-5.7413 8.7535,-9.95524 2.2362,-4.21698 3.8153,-9.08506 4.7403,-14.6073 0.9249,-5.52528 1.1896,-11.07186 0.8032,-16.64582 -0.3895,-5.57122 -1.4118,-10.82662 -3.0608,-15.76652 -1.6582,-4.94354 -3.9401,-9.01326 -6.861,-12.2125 1.7525,-0.48134 3.8428,-1.4014 6.2738,-2.7602 2.431,-1.35546 4.935,-2.88222 7.5151,-4.57874 1.3387,-0.88112 2.6683,-1.79024 3.9979,-2.72522 0.499,4.73878 1.576,8.8952 3.292,12.3914 2.0933,4.26506 4.9351,7.55832 8.5344,9.88526 3.5963,2.3233 7.8285,3.60848 12.6935,3.85006 4.862,0.23976 10.1591,-0.65446 15.9004,-2.69022 4.2779,-1.54898 7.9959,-3.48678 11.1571,-5.8122 3.1582,-2.32694 6.0029,-5.16108 8.5343,-8.50242 0.146,-0.1936 0.283,-0.40374 0.426,-0.59908 0.4503,1.35698 0.9493,2.66072 1.5426,3.8686 2.0933,4.26506 4.938,7.55832 8.5343,9.88526 3.5963,2.3233 7.8285,3.60848 12.6905,3.85006 4.862,0.23976 10.1622,-0.65446 15.9004,-2.69022 4.2809,-1.54898 7.9989,-3.48678 11.1601,-5.8122 3.1582,-2.32694 6.003,-5.16108 8.5344,-8.50242 2.5283,-3.34468 4.8346,-7.19686 6.9279,-11.55592 2.0902,-4.3609 4.2048,-9.34886 6.3467,-14.9709 0.3865,-1.54896 0.021,-2.92998 -1.0953,-4.14152 z"
         fill="#0d0c23"
         id="path897"
         style="fill:#000000;stroke-width:3.04256" />
    </g>
  </g>
</svg>
